<svg xmlns="http://www.w3.org/2000/svg" width="20.656" height="20" viewBox="0 0 20.656 20">
  <defs>
    <style>
      .cls-1 {
        fill: #afb9c0;
        fill-rule: evenodd;
      }
    </style>
  </defs>
  <path id="icon" class="cls-1" d="M739.19,1217.52l-0.035.03a1.134,1.134,0,0,1-1.584,0l-4.743-4.68a8.62,8.62,0,0,1-11.448-.54,8.392,8.392,0,0,1,0-11.97,8.652,8.652,0,0,1,12.116,0,8.373,8.373,0,0,1,.909,10.87l4.785,4.72A1.1,1.1,0,0,1,739.19,1217.52Zm-7.159-15.71a6.561,6.561,0,0,0-9.184,0,6.357,6.357,0,0,0,0,9.07,6.542,6.542,0,0,0,9.184,0A6.356,6.356,0,0,0,732.031,1201.81Z" transform="translate(-718.875 -1197.91)"/>
</svg>
