<svg xmlns="http://www.w3.org/2000/svg" width="106" height="36.97" viewBox="0 0 106 36.97">
  <defs>
    <style>
      .cls-1 {
        fill: #aaa;
        fill-rule: evenodd;
      }
    </style>
  </defs>
  <path id="logo" class="cls-1" d="M273.38,2657.96c-1.9-1.15-4.169-1.69-8-1.69H255.85c-6.673,0-9.926,3.44-11.159,9.61-1.878,9.38-4.3,21.33-4.562,22.63-0.622,3.1,1.029,4.15,4.034,4.15h12.854c5.721,0,9.107-.86,11.663-2.43a11.967,11.967,0,0,0,5.561-7.74c1.512-7.44-5.908-8.54-5.908-8.54a10.563,10.563,0,0,0,7.8-8.36S277.284,2660.34,273.38,2657.96Zm-9.512,23.02c-0.2,1.22-1.166,2.78-4.442,2.78h-7.353l1.157-5.74h6.778C261.6,2678.02,264.348,2678.05,263.868,2680.98Zm1.258-13.5c-0.289,2.06-1.835,2.67-5.19,2.67H254.8s0.338-1.96.553-3.04a2.243,2.243,0,0,1,2.455-2h4.571C262.805,2665.11,265.479,2665,265.126,2667.48Zm40.009,3.15h-5.39c-4.545,0-5.458,3.07-5.873,5.15-0.156.8-.589,2.79-0.589,2.79h6.871c-1.078,4.66-4.37,5.48-6.557,5.48-1.588,0-5.881.51-5.7-5.11a26.3,26.3,0,0,1,2.147-8.65c1.88-3.52,4.378-5.15,9.542-5.37a39.858,39.858,0,0,1,5.477.21,4.742,4.742,0,0,0,4.614-1.95,22,22,0,0,0,2.308-5.01,22.929,22.929,0,0,0-3.38-1.21,35.513,35.513,0,0,0-7.959-.96c-10.1-.19-15.761,5.18-15.761,5.18-5.524,4.73-6.868,12.66-6.868,12.66-2.969,11.59,3.134,15.96,3.134,15.96,4.13,3.57,11.291,3.18,11.291,3.18,8.176,0,12.587-4.34,12.587-4.34,4.543-4.22,5.388-9.95,5.662-11.46C311.411,2673.22,309.72,2670.63,305.135,2670.63Zm28.05-14.4c-9.755,0-15.844,3.66-18.015,14.39,0,0-3.708,18.37-3.728,18.5a3.248,3.248,0,0,0,.538,2.61h0a1.837,1.837,0,0,0,.233.22,3.681,3.681,0,0,0,2.434.69h6.782l2.531-12.03,0.09-.49H332.4c4.214,0,7.518-1.55,8.517-5.37a20.521,20.521,0,0,0,.626-3.7,66.079,66.079,0,0,0-10.742-.22c-2.549.26-4.323,0.76-5.421,2.49l0.558-2.69c1.024-4.34,4.126-5.57,7.469-5.57H339c3.353,0,5.464-1.16,6.086-4.13,0.509-2.41.916-4.7,0.916-4.7H333.185Z" transform="translate(-240 -2656)"/>
</svg>
